<?xml version="1.0" encoding="utf-8"?>
<!-- Generator: Adobe Illustrator 23.0.3, SVG Export Plug-In . SVG Version: 6.00 Build 0)  -->
<svg version="1.1" id="Layer_1" xmlns="http://www.w3.org/2000/svg" xmlns:xlink="http://www.w3.org/1999/xlink" x="0px" y="0px"
	 viewBox="0 0 510 278.9" style="enable-background:new 0 0 510 278.9;" xml:space="preserve">
<style type="text/css">
	.st0{fill:#A9DBED;}
	.st1{fill:#D2F2F1;}
	.st2{fill:#BBE6F9;}
	.st3{fill:#EBEBEB;}
	.st4{fill:#CCCCCC;}
	.st5{fill:#101F32;}
	.st6{fill:#CECDCC;}
	.st7{opacity:0.57;}
	.st8{opacity:0.51;}
	.st9{opacity:0.7;}
	.st10{fill:#C51F32;}
	.st11{opacity:0.31;}
	.st12{fill:#CECECE;}
	.st13{opacity:0.41;}
	.st14{fill:#FFFFFF;}
	.st15{fill:#EDEDED;}
	.st16{fill:#EA9939;}
	.st17{opacity:0.37;}
	.st18{fill:#BAB9B6;}
	.st19{fill:#D88830;}
	.st20{fill:#FFB737;}
	.st21{fill:#F4AA3B;}
	.st22{opacity:0.12;}
	.st23{fill:#5FAFB2;}
	.st24{fill:#89D3D6;}
</style>
<g id="Group_133" transform="translate(-27.499 -96.675)">
	<g id="Group_86" transform="translate(360.769 145.238)">
		<g id="Group_82" transform="translate(33.299 43.102)">
			<path id="Path_1439" class="st0" d="M51.4,0L0,27.2L11.9,5.3L51.4,0z"/>
		</g>
		<g id="Group_83">
			<path id="Path_1440" class="st1" d="M176.7,0L0,21.9l32.4,21.2L176.7,0z"/>
		</g>
		<g id="Group_84" transform="translate(45.176)">
			<path id="Path_1441" class="st1" d="M131.6,0L0,53l36.5,21.7L131.6,0z"/>
		</g>
		<g id="Group_85" transform="translate(32.386)">
			<path id="Path_1442" class="st2" d="M12.8,53L0.9,70.3L0,43.1L144.3,0L12.8,53z"/>
		</g>
	</g>
	<g id="Group_87" transform="translate(51.489 131.225)">
		<path id="Path_1443" class="st3" d="M39.8,0L39.8,0c-0.4,0-0.8,0-1.2,0l0,0C17.3,0.1,0.1,17.3,0,38.6v47.3c0,1,0,1.9,0.1,2.9
			h167.5V0H39.8z"/>
	</g>
	<g id="Group_88" transform="translate(110.176 131.225)">
		<path id="Path_1444" class="st4" d="M6.9,31.2H2.4L0,0h6.9L6.9,31.2z"/>
	</g>
	<g id="Group_89" transform="translate(112.589 112.495)">
		<rect id="Rectangle_45" x="0" y="0" class="st5" width="6.9" height="49.9"/>
	</g>
	<g id="Group_90" transform="translate(186.417 131.225)">
		<path id="Path_1445" class="st6" d="M71.3,85.8V38.6C71.3,17.4,55.2,0,35.6,0l0,0C16,0,0,17.3,0,38.6v47.3c0,1,0,1.9,0.1,2.9h71.1
			C71.2,87.8,71.3,86.8,71.3,85.8z"/>
	</g>
	<g id="Group_91" transform="translate(105.86 157.048)">
		<circle id="Ellipse_8" class="st4" cx="9.3" cy="9.3" r="9.3"/>
	</g>
	<g id="Group_92" transform="translate(51.489 131.225)" class="st7">
		<path id="Path_1446" class="st3" d="M56.4,0H39.8v0c-0.4,0-0.8,0-1.2,0l0,0C17.3,0.1,0.1,17.3,0,38.6v47.3c0,1,0,1.9,0.1,2.9h85.8
			C27.6,50.9,34.4,20.1,56.4,0z"/>
	</g>
	<g id="Group_93" transform="translate(135.319 135.135)" class="st8">
		<path id="Path_1447" class="st6" d="M0,0h63.5c0,0-26.9,2.6-17.8,78.6C45.6,78.6,31.5,22.1,0,0z"/>
	</g>
	<g id="Group_94" transform="translate(106.951 155.047)">
		<circle id="Ellipse_9" class="st5" cx="9.3" cy="9.3" r="9.3"/>
	</g>
	<g id="Group_95" transform="translate(108.673 155.047)" class="st9">
		<path id="Path_1448" class="st5" d="M7.6,0C4.6,0,1.7,1.5,0,3.9c4.2-3,9.9-2,12.9,2.1c2.3,3.2,2.3,7.6,0,10.8
			c4.2-3,5.2-8.7,2.2-12.9C13.4,1.5,10.6,0,7.6,0L7.6,0z"/>
	</g>
	<g id="Group_96" transform="translate(91.312 96.675)">
		<path id="Path_1449" class="st10" d="M28.2,15.8H0l6.5-7.9L0,0h28.2V15.8z"/>
	</g>
	<g id="Group_97" transform="translate(117.086 219.966)">
		<rect id="Rectangle_46" x="0" y="0" class="st5" width="20.3" height="135.3"/>
	</g>
	<g id="Group_98" transform="translate(117.086 219.966)" class="st11">
		<path id="Path_1450" class="st5" d="M20.3,26.9L0,20.3V0h20.3V26.9z"/>
	</g>
	<g id="Group_99" transform="translate(186.417 219.607)">
		<path id="Path_1451" class="st12" d="M65.5,2.7v44c0,19.7-14.7,35.9-32.7,35.9l0,0C14.7,82.6,0,66.4,0,46.7v-44C0,1.8,0,0.9,0.1,0
			h65.3C65.4,0.9,65.5,1.8,65.5,2.7z"/>
	</g>
	<g id="Group_100" transform="translate(186.417 131.225)" class="st13">
		<path id="Path_1452" class="st6" d="M71.3,35.6c0,0-1.3-8.1-1.3-8.1l0.9,4.4l0.3,1.7l-0.3-1.7L56,30.7l0,0
			c-4.7-0.2-9.5-0.7-14.2-1.4c-7-1.1-14.1-1.7-21.1-1.8l0,0c5.4-11.4,17-18.9,39-17.4c-6.3-6.4-15-10.1-24-10.1l0,0
			C16,0,0,17.3,0,38.6v47.3c0,1,0,1.9,0.1,2.9h23.6c-1-3.2-2.1-6.9-3.1-10.8h46c0.5,0,1,0,1.5,0c0,0,0.1,0,0.1,0
			c0.1,0,0.2,0,0.2-0.1l0,0c0.3-0.1,0.5-0.3,0.7-0.5c0.5-0.7,0.8-1.5,0.8-2.4l6.3,0.1"/>
	</g>
	<g id="Group_101" transform="translate(192.236 219.607)">
		<path id="Path_1453" class="st3" d="M65.5,2.7v44c0,19.7-14.7,35.9-32.7,35.9l0,0C14.7,82.6,0,66.4,0,46.7v-44C0,1.8,0,0.9,0.1,0
			h65.3C65.4,0.9,65.5,1.8,65.5,2.7z"/>
	</g>
	<g id="Group_102" transform="translate(231.879 227.966)">
		<path id="Path_1454" class="st14" d="M21.1,0v33.9c0.1,6.5-1.8,12.8-5.3,18.2C12.5,56.9,7.6,61.6,0,62.9C0,62.9,19.8,15.1,21.1,0z
			"/>
	</g>
	<g id="Group_104" transform="translate(217.316 195.188)">
		<g id="Group_103" transform="translate(0)">
			<path id="Path_1455" class="st15" d="M63.9,0.6H0.3C0.1,0.6,0,0.5,0,0.3S0.1,0,0.3,0h63.6c0.2,0,0.3,0.1,0.3,0.3
				S64.1,0.6,63.9,0.6z"/>
		</g>
	</g>
	<g id="Group_106" transform="translate(217.316 198.664)">
		<g id="Group_105" transform="translate(0)">
			<path id="Path_1456" class="st15" d="M63.9,0.6H0.3C0.1,0.6,0,0.5,0,0.3S0.1,0,0.3,0h63.6c0.2,0,0.3,0.1,0.3,0.3
				S64.1,0.6,63.9,0.6z"/>
		</g>
	</g>
	<g id="Group_108" transform="translate(217.316 202.14)">
		<g id="Group_107" transform="translate(0)">
			<path id="Path_1457" class="st15" d="M63.9,0.6H0.3C0.1,0.6,0,0.5,0,0.3S0.1,0,0.3,0h63.6c0.2,0,0.3,0.1,0.3,0.3
				S64.1,0.6,63.9,0.6z"/>
		</g>
	</g>
	<g id="Group_110" transform="translate(217.316 205.618)">
		<g id="Group_109" transform="translate(0)">
			<path id="Path_1458" class="st15" d="M63.9,0.6H0.3C0.1,0.6,0,0.5,0,0.3S0.1,0,0.3,0h63.6c0.2,0,0.3,0.1,0.3,0.3
				S64.1,0.6,63.9,0.6z"/>
		</g>
	</g>
	<g id="Group_112" transform="translate(201.754 163.148)">
		<g id="Group_111" transform="translate(0 0)">
			<path id="Path_1459" class="st16" d="M81.1,0.2L40.6,0L0,0.1l0.7,0.5l0.7,0.5l18.8,16.6l13.3,11.8l5.1,4.5c1.1,1,2.7,1,3.8,0
				l5.2-4.6l13.2-11.6L78.8,1.9l0.7-0.5L81.1,0.2L81.1,0.2z"/>
		</g>
	</g>
	<g id="Group_114" transform="translate(201.754 162.991)" class="st17">
		<g id="Group_113">
			<path id="Path_1460" class="st18" d="M81.2,0.1L58.4,12.3c-11.1,6-24.5,5.9-35.6,0L0,0v46.7c0,1.3,0.9,2.5,2.1,2.9l0,0
				c0.1,0,0.2,0.1,0.3,0.1c0.1,0,0.3,0,0.4,0.1c0.7,0.1,1.4,0,1.9,0h71.7c0.4,0,1.2,0,1.8,0c0.2,0,0.4,0,0.6-0.1
				c0.1,0,0.2,0,0.3-0.1l0,0c1.3-0.4,2.1-1.6,2.1-2.9V0.4C81.3,0.3,81.3,0.2,81.2,0.1z"/>
		</g>
	</g>
	<g id="Group_116" transform="translate(202.875 188.26)">
		<g id="Group_115">
			<path id="Path_1461" class="st19" d="M0,24.6c0.5,0.5,1.2,0.7,1.9,0.7h75.2c0.7,0,1.4-0.2,1.9-0.7L39.5,0L0,24.6z"/>
		</g>
	</g>
	<g id="Group_118" transform="translate(201.754 162.991)">
		<g id="Group_117">
			<path id="Path_1462" class="st20" d="M0,0v47.5c0,0.9,0.4,1.8,1.1,2.4l39.5-24.6L0,0z"/>
		</g>
	</g>
	<g id="Group_120" transform="translate(203.881 188.26)">
		<g id="Group_119">
			<path id="Path_1463" class="st21" d="M0,25.1c0.9,0.2,1.8,0.2,2.7,0.1h71.7c0.9,0.1,1.8,0,2.7-0.2L38.5,0L0,25.1z"/>
		</g>
	</g>
	<g id="Group_122" transform="translate(242.42 163.077)">
		<g id="Group_121" transform="translate(0 0)">
			<path id="Path_1464" class="st20" d="M40.5,0L0,25.2l39.5,24.6c0.7-0.6,1.1-1.5,1.1-2.4V0.3C40.7,0.2,40.6,0.1,40.5,0z"/>
		</g>
	</g>
	<g id="Group_124" transform="translate(201.765 162.991)">
		<g id="Group_123">
			<path id="Path_1465" class="st19" d="M0,0.2h40.7L81.3,0L61,16.8L45.6,29.6l-2.8,2.3c-1.3,1.1-3.1,1.1-4.4,0l-2.7-2.3L20.3,16.8
				L1.1,1.1L0,0.2z"/>
		</g>
	</g>
	<g id="Group_126" transform="translate(201.765 162.991)">
		<g id="Group_125">
			<path id="Path_1466" class="st20" d="M0,0.1h40.7L81.3,0L61,16.2L45.6,28.5l-2.8,2.2c-1.3,1-3.1,1-4.4,0l-2.7-2.2L20.3,16.2
				L1.1,1.1L0,0.1z"/>
		</g>
	</g>
	<g id="Group_127" transform="translate(257.191 162.991)" class="st22">
		<path id="Path_1467" class="st14" d="M0,0.1C-0.5,13,3,32.7,25.9,43.4v-43c0-0.1,0-0.2-0.1-0.3L25.9,0L0,0.1z"/>
	</g>
	<g id="Group_128" transform="translate(86.12 344.347)">
		<path id="Path_1468" class="st5" d="M0,21.8C0,9.8,17.9,0,40,0s40,9.8,40,21.8"/>
	</g>
	<g id="Group_129" transform="translate(120.091 344.347)" class="st11">
		<path id="Path_1469" class="st5" d="M6,0C4,0,2,0.1,0,0.2c19.2,1.6,34,10.6,34,21.6h12C46,9.8,28.1,0,6,0z"/>
	</g>
	<g id="Group_130" transform="translate(27.499 365.802)">
		<path id="Path_1470" class="st23" d="M221.1,9.8H4.9C2.2,9.8,0,7.6,0,4.9S2.2,0,4.9,0h216.2c2.7,0,4.9,2.2,4.9,4.9
			S223.9,9.8,221.1,9.8L221.1,9.8L221.1,9.8z"/>
	</g>
	<g id="Group_131" transform="translate(263.23 365.802)">
		<path id="Path_1471" class="st24" d="M39,9.8H4.9C2.2,9.8,0,7.6,0,4.9S2.2,0,4.9,0H39c2.7,0,4.9,2.2,4.9,4.9S41.7,9.8,39,9.8
			L39,9.8z"/>
	</g>
	<g id="Group_132" transform="translate(314.543 365.802)">
		<path id="Path_1472" class="st24" d="M17.9,9.8h-13C2.2,9.8,0,7.6,0,4.9S2.2,0,4.9,0h13c2.7,0,4.9,2.2,4.9,4.9S20.6,9.8,17.9,9.8
			L17.9,9.8z"/>
	</g>
</g>
</svg>
