<svg xmlns="http://www.w3.org/2000/svg" width="46" height="46" viewBox="0 0 46 46"><defs><style>.a{fill:none;}.b{fill:#fff;}</style></defs><path class="a" d="M0,0H46V46H0Z"/><path class="b" d="M21.147,2A19.167,19.167,0,1,0,40.333,21.167,19.157,19.157,0,0,0,21.147,2Zm6.191,29.5-6.172-3.718L14.995,31.5a.962.962,0,0,1-1.437-1.035l1.629-7.015-5.424-4.7a.968.968,0,0,1,.556-1.687l7.168-.613,2.8-6.612a.954.954,0,0,1,1.763,0l2.8,6.593,7.168.613a.96.96,0,0,1,.537,1.687l-5.424,4.7,1.629,7.034A.95.95,0,0,1,27.338,31.5Z" transform="translate(1.833 1.833)"/></svg>