<svg xmlns="http://www.w3.org/2000/svg" width="24" height="24" viewBox="0 0 24 24"><defs><style>.a{fill:none;}.b{fill:#fff;}</style></defs><path class="a" d="M0,0H24V24H0Z"/><path class="b" d="M12,9a1,1,0,0,0,1-1V6h2a1,1,0,0,0,0-2H13V2a1,1,0,0,0-2,0V4H9A1,1,0,0,0,9,6h2V8A1,1,0,0,0,12,9ZM7,18a2,2,0,1,0,2,2A2,2,0,0,0,7,18Zm10,0a2,2,0,1,0,2,2A2,2,0,0,0,17,18ZM8.1,13h7.45a1.991,1.991,0,0,0,1.75-1.03l3.38-6.13a1,1,0,1,0-1.74-.97L15.55,11H8.53L4.54,2.57A.993.993,0,0,0,3.64,2H2A1,1,0,0,0,2,4H3l3.6,7.59L5.25,14.03A2,2,0,0,0,7,17H18a1,1,0,0,0,0-2H7Z"/></svg>